<mxfile host="Electron" modified="2023-11-21T07:48:25.635Z" agent="Mozilla/5.0 (Windows NT 10.0; Win64; x64) AppleWebKit/537.36 (KHTML, like Gecko) draw.io/22.1.2 Chrome/114.0.5735.289 Electron/25.9.4 Safari/537.36" etag="9UIYqE0GAqHx4jy1qc0p" version="22.1.2" type="device">
  <diagram name="Page-1" id="tE52gEEe1hTiOTre7X6w">
    <mxGraphModel dx="1098" dy="1997" grid="1" gridSize="10" guides="1" tooltips="1" connect="1" arrows="1" fold="1" page="1" pageScale="1" pageWidth="827" pageHeight="1169" math="0" shadow="0">
      <root>
        <mxCell id="0" />
        <mxCell id="1" parent="0" />
        <mxCell id="4Xtzo8XD4GqCCbiUdCga-1" value="Saisir le 1er Nombre" style="ellipse;whiteSpace=wrap;html=1;" vertex="1" parent="1">
          <mxGeometry x="340" y="-1100" width="120" height="80" as="geometry" />
        </mxCell>
        <mxCell id="4Xtzo8XD4GqCCbiUdCga-2" value="" style="endArrow=classic;html=1;rounded=0;" edge="1" parent="1">
          <mxGeometry width="50" height="50" relative="1" as="geometry">
            <mxPoint x="399.5" y="-1020" as="sourcePoint" />
            <mxPoint x="400" y="-960" as="targetPoint" />
          </mxGeometry>
        </mxCell>
        <mxCell id="4Xtzo8XD4GqCCbiUdCga-3" value="Saisir le 2éme Nombre" style="ellipse;whiteSpace=wrap;html=1;" vertex="1" parent="1">
          <mxGeometry x="340" y="-960" width="120" height="80" as="geometry" />
        </mxCell>
        <mxCell id="4Xtzo8XD4GqCCbiUdCga-11" value="Si N1*N2&amp;gt;0" style="rhombus;whiteSpace=wrap;html=1;fontColor=#000000;fillColor=#ffffc0;strokeColor=#ff0000;" vertex="1" parent="1">
          <mxGeometry x="360" y="-760" width="80" height="40" as="geometry" />
        </mxCell>
        <mxCell id="4Xtzo8XD4GqCCbiUdCga-18" value="" style="endArrow=classic;html=1;rounded=0;" edge="1" parent="1">
          <mxGeometry width="50" height="50" relative="1" as="geometry">
            <mxPoint x="400" y="-880" as="sourcePoint" />
            <mxPoint x="400" y="-760" as="targetPoint" />
            <Array as="points">
              <mxPoint x="400" y="-840" />
              <mxPoint x="400" y="-760" />
            </Array>
          </mxGeometry>
        </mxCell>
        <mxCell id="4Xtzo8XD4GqCCbiUdCga-20" value="" style="endArrow=classic;html=1;rounded=0;exitX=0;exitY=0.5;exitDx=0;exitDy=0;" edge="1" parent="1" source="4Xtzo8XD4GqCCbiUdCga-11">
          <mxGeometry width="50" height="50" relative="1" as="geometry">
            <mxPoint x="319.5" y="-740" as="sourcePoint" />
            <mxPoint x="319.5" y="-690" as="targetPoint" />
          </mxGeometry>
        </mxCell>
        <mxCell id="4Xtzo8XD4GqCCbiUdCga-21" value="" style="endArrow=classic;html=1;rounded=0;exitX=1;exitY=0.5;exitDx=0;exitDy=0;" edge="1" parent="1" source="4Xtzo8XD4GqCCbiUdCga-11">
          <mxGeometry width="50" height="50" relative="1" as="geometry">
            <mxPoint x="479.5" y="-740" as="sourcePoint" />
            <mxPoint x="479.5" y="-690" as="targetPoint" />
          </mxGeometry>
        </mxCell>
        <mxCell id="4Xtzo8XD4GqCCbiUdCga-22" value="Le résultat est Négatif" style="ellipse;whiteSpace=wrap;html=1;" vertex="1" parent="1">
          <mxGeometry x="420" y="-690" width="120" height="80" as="geometry" />
        </mxCell>
        <mxCell id="4Xtzo8XD4GqCCbiUdCga-23" value="Le résultat est Positif" style="ellipse;whiteSpace=wrap;html=1;" vertex="1" parent="1">
          <mxGeometry x="260" y="-690" width="120" height="80" as="geometry" />
        </mxCell>
        <mxCell id="4Xtzo8XD4GqCCbiUdCga-24" value="" style="endArrow=classic;html=1;rounded=0;exitX=0.5;exitY=1;exitDx=0;exitDy=0;" edge="1" parent="1" source="4Xtzo8XD4GqCCbiUdCga-23">
          <mxGeometry width="50" height="50" relative="1" as="geometry">
            <mxPoint x="320" y="-520" as="sourcePoint" />
            <mxPoint x="400" y="-480" as="targetPoint" />
          </mxGeometry>
        </mxCell>
        <mxCell id="4Xtzo8XD4GqCCbiUdCga-25" value="" style="endArrow=classic;html=1;rounded=0;exitX=0.5;exitY=1;exitDx=0;exitDy=0;" edge="1" parent="1" source="4Xtzo8XD4GqCCbiUdCga-22">
          <mxGeometry width="50" height="50" relative="1" as="geometry">
            <mxPoint x="480" y="-520" as="sourcePoint" />
            <mxPoint x="400" y="-480" as="targetPoint" />
          </mxGeometry>
        </mxCell>
        <mxCell id="4Xtzo8XD4GqCCbiUdCga-26" value="Fin de l&#39;algorithme" style="ellipse;whiteSpace=wrap;html=1;" vertex="1" parent="1">
          <mxGeometry x="340" y="-480" width="120" height="80" as="geometry" />
        </mxCell>
      </root>
    </mxGraphModel>
  </diagram>
</mxfile>
